<svg id="visual" viewBox="0 0 900 450" width="900" height="450" xmlns="http://www.w3.org/2000/svg" xmlns:xlink="http://www.w3.org/1999/xlink" version="1.1"><g><g transform="translate(211 39)"><path d="M0 -97L68.6 -68.6L97 0L68.6 68.6L0 97L-68.6 68.6L-97 0L-68.6 -68.6Z" fill="none" stroke="rgb(35,156,248,0.3)" stroke-width="6"></path></g><g transform="translate(681 433)"><path d="M0 -85L60.1 -60.1L85 0L60.1 60.1L0 85L-60.1 60.1L-85 0L-60.1 -60.1Z" fill="none" stroke="rgb(35,156,248,0.3)" stroke-width="6"></path></g><g transform="translate(881 393)"><path d="M0 -90L63.6 -63.6L90 0L63.6 63.6L0 90L-63.6 63.6L-90 0L-63.6 -63.6Z" fill="none" stroke="rgb(253,190,0,0.2)" stroke-width="6"></path></g><g transform="translate(52 168)"><path d="M0 -73L51.6 -51.6L73 0L51.6 51.6L0 73L-51.6 51.6L-73 0L-51.6 -51.6Z" stroke="rgb(253,190,0,0.3)" fill="none" stroke-width="6"></path></g><g transform="translate(670 225)"><path d="M0 -43L30.4 -30.4L43 0L30.4 30.4L0 43L-30.4 30.4L-43 0L-30.4 -30.4Z" stroke="rgb(253,190,0,0.4)" fill="none" stroke-width="6"></path></g></g></svg>