<svg id="visual" viewBox="0 0 900 675" width="900" height="675" xmlns="http://www.w3.org/2000/svg" xmlns:xlink="http://www.w3.org/1999/xlink" version="1.1"><rect x="0" y="0" width="900" height="675" fill="#001220"></rect><path d="M0 435L21.5 443.8C43 452.7 86 470.3 128.8 467C171.7 463.7 214.3 439.3 257.2 419.8C300 400.3 343 385.7 385.8 398.7C428.7 411.7 471.3 452.3 514.2 456.5C557 460.7 600 428.3 642.8 428C685.7 427.7 728.3 459.3 771.2 467.8C814 476.3 857 461.7 878.5 454.3L900 447L900 676L878.5 676C857 676 814 676 771.2 676C728.3 676 685.7 676 642.8 676C600 676 557 676 514.2 676C471.3 676 428.7 676 385.8 676C343 676 300 676 257.2 676C214.3 676 171.7 676 128.8 676C86 676 43 676 21.5 676L0 676Z" fill="#0066ff"></path><path d="M0 489L21.5 494.2C43 499.3 86 509.7 128.8 509.7C171.7 509.7 214.3 499.3 257.2 500.5C300 501.7 343 514.3 385.8 524.5C428.7 534.7 471.3 542.3 514.2 539.8C557 537.3 600 524.7 642.8 519.8C685.7 515 728.3 518 771.2 523C814 528 857 535 878.5 538.5L900 542L900 676L878.5 676C857 676 814 676 771.2 676C728.3 676 685.7 676 642.8 676C600 676 557 676 514.2 676C471.3 676 428.7 676 385.8 676C343 676 300 676 257.2 676C214.3 676 171.7 676 128.8 676C86 676 43 676 21.5 676L0 676Z" fill="#008eff"></path><path d="M0 552L21.5 557.7C43 563.3 86 574.7 128.8 578.7C171.7 582.7 214.3 579.3 257.2 574.3C300 569.3 343 562.7 385.8 560.3C428.7 558 471.3 560 514.2 559.7C557 559.3 600 556.7 642.8 557.8C685.7 559 728.3 564 771.2 569.8C814 575.7 857 582.3 878.5 585.7L900 589L900 676L878.5 676C857 676 814 676 771.2 676C728.3 676 685.7 676 642.8 676C600 676 557 676 514.2 676C471.3 676 428.7 676 385.8 676C343 676 300 676 257.2 676C214.3 676 171.7 676 128.8 676C86 676 43 676 21.5 676L0 676Z" fill="#57aff5"></path></svg>